<svg width="64" height="64" viewBox="0 0 64 64" fill="none" xmlns="http://www.w3.org/2000/svg">
  <rect x="12" y="8" width="40" height="48" rx="4" fill="#215b6f"/>
  <rect x="16" y="12" width="32" height="40" rx="2" fill="#7cc0ba"/>
  <rect x="20" y="16" width="24" height="2" rx="1" fill="#215b6f"/>
  <rect x="20" y="20" width="20" height="2" rx="1" fill="#215b6f"/>
  <rect x="20" y="24" width="16" height="2" rx="1" fill="#215b6f"/>
  <rect x="20" y="32" width="8" height="2" rx="1" fill="#215b6f"/>
  <rect x="32" y="32" width="12" height="2" rx="1" fill="#215b6f"/>
  <rect x="20" y="36" width="6" height="2" rx="1" fill="#215b6f"/>
  <rect x="30" y="36" width="14" height="2" rx="1" fill="#215b6f"/>
  <rect x="20" y="40" width="10" height="2" rx="1" fill="#215b6f"/>
  <rect x="34" y="40" width="10" height="2" rx="1" fill="#215b6f"/>
  <circle cx="8" cy="16" r="6" fill="#7cc0ba" stroke="#215b6f" stroke-width="2"/>
  <text x="8" y="20" text-anchor="middle" fill="#215b6f" font-size="8" font-weight="bold">₹</text>
</svg>