<svg width="64" height="64" viewBox="0 0 64 64" fill="none" xmlns="http://www.w3.org/2000/svg">
  <!-- Background circle -->
  <rect width="64" height="64" rx="12" fill="#e8f5f3"/>
  
  <!-- Computer/laptop screen -->
  <rect x="12" y="18" width="40" height="26" rx="2" fill="#215b6f"/>
  <rect x="14" y="20" width="36" height="20" rx="1" fill="#7cc0ba"/>
  
  <!-- Shopping cart icon on screen -->
  <path d="M22 26h12l1 6H24l-2-6z" fill="#215b6f"/>
  <path d="M20 24h2l2 8h12l1-6" stroke="#215b6f" stroke-width="1.5" fill="none" stroke-linecap="round"/>
  <circle cx="26" cy="35" r="1" fill="#215b6f"/>
  <circle cx="32" cy="35" r="1" fill="#215b6f"/>
  
  <!-- Laptop base -->
  <rect x="10" y="44" width="44" height="4" rx="2" fill="#215b6f"/>
  
  <!-- Growth arrow -->
  <path d="M46 28L52 22L46 16" stroke="#7cc0ba" stroke-width="2" stroke-linecap="round" stroke-linejoin="round"/>
  <path d="M48 22H52" stroke="#7cc0ba" stroke-width="2" stroke-linecap="round"/>
  
  <!-- Dollar sign -->
  <path d="M18 12v4m0 0v4m0-4h4m-4 0h-4" stroke="#215b6f" stroke-width="2" stroke-linecap="round"/>
</svg>