<svg width="64" height="64" viewBox="0 0 64 64" fill="none" xmlns="http://www.w3.org/2000/svg">
  <circle cx="24" cy="20" r="6" fill="#7cc0ba"/>
  <circle cx="40" cy="20" r="6" fill="#7cc0ba"/>
  <path d="M24 30c-6 0-12 3-12 9v15h24V39c0-6-6-9-12-9z" fill="#215b6f"/>
  <path d="M40 30c-6 0-12 3-12 9v15h24V39c0-6-6-9-12-9z" fill="#215b6f"/>
  <path d="M32 32c-4 0-8 2-8 6v16h16V38c0-4-4-6-8-6z" fill="#7cc0ba"/>
  <circle cx="32" cy="22" r="5" fill="#215b6f"/>
  <path d="M16 8c0 4 4 8 8 8s8-4 8-8" stroke="#7cc0ba" stroke-width="3" fill="none"/>
  <path d="M32 8c0 4 4 8 8 8s8-4 8-8" stroke="#7cc0ba" stroke-width="3" fill="none"/>
  <circle cx="20" cy="8" r="2" fill="#215b6f"/>
  <circle cx="44" cy="8" r="2" fill="#215b6f"/>
</svg>