<svg width="64" height="64" viewBox="0 0 64 64" fill="none" xmlns="http://www.w3.org/2000/svg">
  <circle cx="32" cy="16" r="6" fill="#7cc0ba"/>
  <path d="M32 26c-6 0-12 3-12 9v19h24V35c0-6-6-9-12-9z" fill="#215b6f"/>
  <path d="M20 32c-2 0-4 2-4 4v8c0 2 2 4 4 4h4v-16h-4z" fill="#7cc0ba"/>
  <path d="M40 32c2 0 4 2 4 4v8c0 2-2 4-4 4h-4v-16h4z" fill="#7cc0ba"/>
  <circle cx="18" cy="20" r="3" fill="#215b6f"/>
  <circle cx="46" cy="20" r="3" fill="#215b6f"/>
  <path d="M18 24c0 4 4 8 8 8" stroke="#215b6f" stroke-width="2" fill="none"/>
  <path d="M46 24c0 4-4 8-8 8" stroke="#215b6f" stroke-width="2" fill="none"/>
</svg>